<?xml version="1.0" standalone="no"?>
<!DOCTYPE svg PUBLIC "-//W3C//DTD SVG 20010904//EN"
 "http://www.w3.org/TR/2001/REC-SVG-20010904/DTD/svg10.dtd">
<svg version="1.0" xmlns="http://www.w3.org/2000/svg"
 width="1600.000000pt" height="1200.000000pt" viewBox="0 0 1600.000000 1200.000000"
 preserveAspectRatio="xMidYMid meet">

<g transform="translate(0.000000,1200.000000) scale(0.100000,-0.100000)"
fill="#000000" stroke="none">
<path d="M12220 9088 c-66 -26 -384 -100 -545 -127 -712 -119 -1519 -144
-2765 -87 -94 5 -95 5 -45 -9 28 -7 41 -14 30 -15 -17 -2 -16 -3 5 -10 l25 -8
-25 -2 c-22 -1 -23 -2 -5 -9 18 -7 17 -8 -6 -14 -25 -6 -26 -10 -38 -129 -15
-146 -12 -135 -45 -223 -14 -38 -26 -82 -26 -97 0 -29 -14 -98 -32 -157 -7
-25 -7 -35 2 -41 9 -6 9 -20 -1 -64 -8 -31 -17 -56 -21 -56 -5 0 -8 -18 -8
-39 0 -22 -4 -41 -8 -43 -4 -1 -16 -36 -26 -77 -9 -41 -25 -80 -33 -87 -14 -9
-8 -13 35 -25 51 -13 52 -13 52 -51 0 -21 -4 -38 -10 -38 -5 0 -10 -13 -10
-28 0 -16 -3 -32 -7 -35 -4 -4 -8 -26 -11 -49 -2 -24 -7 -45 -11 -48 -12 -8
-31 -85 -31 -123 0 -20 -4 -39 -10 -42 -5 -3 -10 -30 -10 -60 0 -32 -5 -55
-12 -57 -7 -3 -11 -22 -10 -51 2 -26 -1 -47 -6 -47 -8 0 -25 -74 -42 -189 -5
-36 -14 -68 -20 -71 -6 -4 -13 -31 -15 -61 -9 -105 -13 -135 -25 -196 -7 -35
-18 -63 -24 -64 -6 0 -3 -4 8 -8 16 -6 14 -9 -15 -25 l-34 -17 35 7 c45 8 40
4 -49 -44 l-73 -40 178 -8 c99 -4 485 -8 859 -8 744 -1 821 3 1045 60 784 198
1350 919 1695 2160 44 158 117 456 112 460 -1 1 -13 -3 -27 -8z"/>
<path d="M5696 6351 c-6 -10 24 -25 32 -16 3 3 0 5 -7 5 -7 0 -9 5 -6 10 3 6
2 10 -4 10 -5 0 -12 -4 -15 -9z"/>
<path d="M5589 6321 c-351 -114 -550 -290 -615 -541 -77 -302 191 -702 599
-889 126 -58 123 -58 132 -14 12 66 84 238 134 322 91 150 214 285 360 391
l66 49 1 183 c0 190 9 256 54 389 12 34 19 63 17 65 -7 7 -241 -15 -343 -32
-55 -9 -111 -17 -125 -19 -14 -1 -31 -5 -37 -9 -16 -10 -54 3 -46 16 4 6 -2 6
-15 -1 -17 -10 -21 -9 -21 4 0 10 5 13 13 9 6 -4 0 4 -15 19 -16 14 -28 32
-28 40 0 8 -10 22 -23 30 -21 14 -30 13 -108 -12z"/>
<path d="M9800 6260 c-267 -19 -826 -23 -1292 -10 l-483 13 -422 -138 c-232
-77 -420 -142 -417 -146 2 -4 -6 -5 -18 -1 -16 4 -19 2 -13 -8 6 -10 4 -12 -8
-7 -10 4 -16 2 -14 -6 1 -7 -3 -11 -10 -10 -16 3 -11 -16 15 -57 12 -19 22
-42 22 -50 0 -8 9 -30 20 -48 11 -18 20 -39 20 -48 0 -8 7 -22 15 -31 8 -8 13
-19 10 -24 -4 -5 -2 -9 2 -9 5 0 9 -8 10 -17 5 -51 13 -78 27 -89 9 -6 16 -21
16 -33 0 -11 5 -21 10 -21 6 0 10 -6 10 -14 0 -7 7 -27 15 -42 8 -16 15 -37
15 -46 0 -9 8 -22 18 -28 12 -8 13 -13 5 -16 -10 -4 -9 -9 2 -20 8 -8 11 -22
8 -30 -5 -13 -1 -15 18 -10 13 3 18 3 12 0 -7 -3 -13 -9 -13 -14 0 -4 35 1 77
13 57 16 78 18 81 9 2 -7 11 -12 19 -12 9 0 13 -6 10 -14 -3 -8 2 -29 11 -48
10 -18 24 -53 32 -78 7 -25 20 -54 27 -65 12 -20 52 -121 76 -192 5 -18 14
-33 19 -33 4 0 8 -7 8 -16 0 -8 7 -22 15 -31 9 -8 13 -23 10 -33 -3 -10 -1
-21 4 -25 6 -3 18 -32 27 -63 8 -31 22 -71 30 -89 8 -17 14 -35 14 -41 0 -20
25 -30 50 -19 14 5 36 12 49 14 36 6 730 246 971 335 359 134 476 197 620 334
212 202 336 468 394 840 22 138 21 185 -1 182 -10 -1 -65 -5 -123 -8z m-2650
-330 c-20 -13 -33 -13 -25 0 3 6 14 10 23 10 15 0 15 -2 2 -10z"/>
<path d="M7074 4268 c-133 -47 -361 -158 -469 -229 -44 -29 -121 -93 -171
-143 -72 -72 -99 -108 -130 -170 -37 -75 -39 -86 -39 -170 0 -79 4 -98 27
-146 33 -67 121 -156 203 -205 127 -76 343 -119 600 -118 167 0 254 13 333 48
46 21 52 27 52 54 0 27 -7 33 -67 63 -213 103 -375 409 -372 700 0 51 6 117
12 147 l12 54 93 37 c51 20 89 40 85 45 -5 4 0 5 11 1 18 -6 18 -5 2 18 -9 14
-16 32 -16 40 0 24 -48 16 -166 -26z"/>
</g>
</svg>
